<svg width="382" height="108" viewBox="0 0 382 108" fill="none" xmlns="http://www.w3.org/2000/svg">
<path d="M36.3056 40.2194H24.2809C21.0311 40.2194 19.4067 41.276 19.4067 43.387C19.407 44.6278 19.7932 45.4967 20.5667 45.993C21.3404 46.4587 22.7173 46.6908 24.6975 46.6909H35.0966V60.847H22.7941C21.1232 60.8471 19.9306 61.0947 19.2188 61.5912C18.5387 62.0876 18.1979 62.9259 18.1977 64.1045C18.1977 65.4392 18.556 66.3252 19.2678 66.7597C19.98 67.163 21.4339 67.3648 23.6301 67.3648H36.3056V85.5254H21.4952C14.5315 85.5254 9.208 83.8636 5.52494 80.5423C1.84191 77.1899 6.01648e-05 72.3629 0 66.0618V41.1517C0 35.0678 1.73447 30.348 5.2009 26.9956C8.69811 23.6436 13.6028 21.9662 19.9159 21.9661H36.3056V40.2194Z" fill="#344054"></path>
<path d="M66.0161 85.5254H47.1676V21.9661H66.0161V85.5254Z" fill="#344054"></path>
<path d="M85.4691 50.7881L102.087 85.5254H80.919L66.5743 50.4173L82.8223 21.9661H102.183L85.4691 50.7881Z" fill="#344054"></path>
<path d="M150.51 40.2194H136.119V85.5254H117.271V40.2194H102.831V21.9661H150.51V40.2194Z" fill="#344054"></path>
<path d="M192.48 40.2194H180.455C177.206 40.2196 175.581 41.2762 175.581 43.387C175.581 44.6273 175.968 45.4966 176.741 45.993C177.515 46.4588 178.894 46.6909 180.874 46.6909H191.273V60.847H178.971C177.3 60.847 176.107 61.0947 175.396 61.5912C174.715 62.0875 174.375 62.9255 174.375 64.1045C174.375 65.4391 174.73 66.3252 175.442 66.7597C176.154 67.1634 177.61 67.3648 179.807 67.3648H192.48V85.5254H177.672C170.708 85.5254 165.382 83.8637 161.699 80.5423C158.017 77.1899 156.177 72.3626 156.177 66.0618V41.1517C156.177 35.0678 157.909 30.348 161.375 26.9956C164.872 23.6431 169.779 21.9661 176.093 21.9661H192.48V40.2194Z" fill="#344054"></path>
<path d="M226.37 21.9661C240.019 21.9661 246.844 27.3525 246.844 38.1231C246.844 43.4624 244.506 47.9011 239.832 51.4396C246.611 54.3887 250 59.6516 250 67.2258C250 73.0303 248.004 77.6555 244.012 81.1011C242.062 82.7463 239.972 83.895 237.744 84.5468C235.516 85.1985 232.514 85.5253 228.739 85.5254H225.164V69.1803H228.366C230.253 69.1803 231.584 68.9477 232.358 68.4825C233.131 67.9858 233.52 67.1329 233.521 65.9228C233.521 63.8744 231.941 62.8481 228.785 62.8479H225.164V45.9003C228.629 45.9002 230.361 44.7052 230.362 42.3157C230.362 40.1118 228.799 39.009 225.673 39.009H222.193V85.5254H203.342V21.9661H226.37Z" fill="#344054"></path>
<path d="M345.979 24.5457C345.331 25.0767 344.739 25.6776 344.215 26.334C342.449 28.5601 340.083 29.9924 337.184 30.082C332.207 30.2344 326.004 30.2223 322.158 30.0288L322.121 30.0279C319.499 30.0834 316.989 28.915 315.395 26.8332C314.948 26.247 314.435 25.6955 313.85 25.191C309.671 21.5661 303.325 21.6519 299.252 25.3998C294.369 29.8918 294.532 37.6132 299.601 41.8946C303.827 45.4627 310.173 45.2827 314.195 41.4859C314.753 40.9564 315.247 40.3868 315.672 39.7797C317.175 37.6316 319.657 36.6375 322.258 36.3049C326.158 35.8032 332.67 35.61 336.91 36.1036C338.451 36.282 339.974 36.5287 341.431 36.9749C343.365 37.5713 344.353 39.168 345.888 40.3772C348.176 42.1776 350.809 43.4852 353.76 43.4307C356.386 43.3769 358.967 42.3806 360.902 40.6002C365.785 36.1082 365.623 28.3868 360.553 24.1053C356.302 20.5177 350.076 21.1846 345.983 24.5474L345.979 24.5457Z" fill="#604D8C"></path>
<path d="M345.979 65.8773C345.331 66.4082 344.739 67.0092 344.215 67.6656C342.449 69.8917 340.083 71.324 337.184 71.4136C332.207 71.566 326.004 71.5539 322.158 71.3604L322.121 71.3594C319.499 71.4149 316.989 70.2466 315.395 68.1648C314.948 67.5786 314.435 67.0271 313.85 66.5225C309.671 62.8977 303.325 62.9834 299.252 66.7314C294.369 71.2234 294.532 78.9448 299.601 83.2262C303.827 86.7943 310.173 86.6143 314.195 82.8175C314.753 82.2879 315.247 81.7184 315.672 81.1112C317.175 78.9632 319.657 77.969 322.258 77.6365C326.158 77.1348 332.67 76.9415 336.91 77.4351C338.451 77.6136 339.974 77.8602 341.431 78.3065C343.365 78.9028 344.353 80.4995 345.888 81.7088C348.176 83.5092 350.809 84.8168 353.76 84.7623C356.386 84.7084 358.967 83.7122 360.902 81.9317C365.785 77.4397 365.623 69.7183 360.553 65.4369C356.302 61.8492 350.076 62.5161 345.983 65.879L345.979 65.8773Z" fill="#604D8C"></path>
<path d="M324.287 45.6512C323.639 46.1822 323.047 46.7831 322.523 47.4395C320.757 49.6656 318.391 51.0979 315.492 51.1875C310.515 51.3399 304.313 51.3278 300.466 51.1343L300.429 51.1334C297.807 51.1888 295.298 50.0205 293.704 47.9387C293.256 47.3525 292.743 46.801 292.159 46.2965C287.98 42.6716 281.634 42.7574 277.56 46.5053C272.677 50.9973 272.84 58.7187 277.909 63.0001C282.135 66.5682 288.481 66.3882 292.504 62.5914C293.062 62.0619 293.556 61.4923 293.98 60.8852C295.483 58.7371 297.965 57.743 300.566 57.4104C304.466 56.9087 310.978 56.7155 315.218 57.2091C316.759 57.3875 318.282 57.6342 319.739 58.0804C321.673 58.6768 322.661 60.2735 324.197 61.4827C326.484 63.2831 329.117 64.5907 332.068 64.5362C334.694 64.4824 337.275 63.4861 339.21 61.7057C344.094 57.2137 343.931 49.4923 338.861 45.2108C334.611 41.6232 328.384 42.2901 324.291 45.6529L324.287 45.6512Z" fill="#604D8C"></path>
<circle cx="370.646" cy="54.031" r="10.8459" fill="#604D8C"></circle>
</svg>